$MeshFormat
4.1 0 8
$EndMeshFormat
$Entities
2 3 1 1
1 6.123233995736766e-18 -1.499759782661858e-33 0.6 0 
2 6.123233995736766e-18 -1.499759782661858e-33 0.4 0 
1 -1.000000000061648e-07 -1.000000000061579e-07 0.5999999 1.000000000061648e-07 1.000000000061579e-07 0.6000000999999999 0 2 1 -1 
2 -1.000000000167534e-07 -1.000000000244929e-07 0.3999999 0.1000001 1e-07 0.6000000999999999 0 2 2 -1 
3 -1.000000000061648e-07 -1.000000000061579e-07 0.3999999 1.000000000061648e-07 1.000000000061579e-07 0.4000001 0 2 2 -2 
1 -0.1000001 -0.1000001 0.3999999 0.1000001 0.1000001 0.6000000999999999 0 4 -1 -2 3 2 
1 -0.1000001 -0.1000001 0.3999999 0.1000001 0.1000001 0.6000000999999999 0 1 1 
$EndEntities
$Nodes
7 201 1 201
0 1 0 1
1
6.123233995736766e-18 -1.499759782661858e-33 0.6
0 2 0 1
2
6.123233995736766e-18 -1.499759782661858e-33 0.4
1 1 0 0
1 2 0 9
3
4
5
6
7
8
9
10
11
0.03090169943749473 -7.568733460868296e-18 0.4048943483704847
0.05877852522924723 -1.439658655611991e-17 0.4190983005625052
0.08090169943749463 -1.98152014523418e-17 0.4412214747707525
0.09510565162951527 -2.329416636978183e-17 0.469098300562505
0.1 -2.449293598294707e-17 0.4999999999999998
0.0951056516295154 -2.329416636978186e-17 0.5309016994374947
0.08090169943749476 -1.981520145234184e-17 0.5587785252292473
0.0587785252292472 -1.43965865561199e-17 0.5809016994374948
0.0309016994374946 -7.568733460868265e-18 0.5951056516295155
1 3 0 0
2 1 0 150
12
13
14
15
16
17
18
19
20
21
22
23
24
25
26
27
28
29
30
31
32
33
34
35
36
37
38
39
40
41
42
43
44
45
46
47
48
49
50
51
52
53
54
55
56
57
58
59
60
61
62
63
64
65
66
67
68
69
70
71
72
73
74
75
76
77
78
79
80
81
82
83
84
85
86
87
88
89
90
91
92
93
94
95
96
97
98
99
100
101
102
103
104
105
106
107
108
109
110
111
112
113
114
115
116
117
118
119
120
121
122
123
124
125
126
127
128
129
130
131
132
133
134
135
136
137
138
139
140
141
142
143
144
145
146
147
148
149
150
151
152
153
154
155
156
157
158
159
160
161
0.004677568090486793 0.02161395142801991 0.5975241378348256
0.03569270192488653 0.02805538750113483 0.4108993475811632
0.09500363038415832 -0.02701097546009754 0.4843565534959767
0.06808812905082125 -0.02698172279030877 0.5680881290507064
0.04371526982851325 -0.02698172279305417 0.4142039521951095
0.0853908125031458 0.02881095793316707 0.4566602048571307
0.08579604780798812 0.02698172279017612 0.5437152698242103
0.0150632554050364 -0.02698172279019931 0.5951056516295192
0.04564646352439774 0.03049883810206742 0.5835836182642251
0.06212581076243338 0.02996097381118895 0.4275933450199806
0.09502640201911879 -0.02701284275521672 0.515501265934844
0.08528206901846735 -0.05222012128877791 0.499833757662744
0.08113378146171484 -0.05001513560382991 0.4697378831498323
0.08095060499362797 -0.0500803545007199 0.530642415770429
0.06693882401818972 -0.072896921752788 0.5143259428321396
0.05890535921777946 -0.06761323624627674 0.5442561740295017
0.01396663028336863 -0.02630486925403426 0.404538033269496
0.04498629660403532 -0.02791735546537753 0.5848342759836702
0.02688371165187704 -0.0534728484184314 0.5801119250164306
0.09524668747922288 0.02695184301275898 0.485799060508162
0.09529387214958006 0.02647834144647366 0.5147639887897358
0.0814187226509981 0.05200996443722416 0.5258061078258331
0.0148223660400246 0.04610094863174887 0.5874928568525932
0.042117608788041 0.05402091203289063 0.427145020121393
0.08210156393373255 0.05196665967786047 0.4763610600584405
0.06805480234011148 0.05074037470954366 0.5528579062466861
0.0595474728884139 0.07291160594187333 0.5337341991394577
0.04205816536338799 0.06907036954108284 0.5588251202950251
0.07131065013120136 0.07010180220314288 0.4992730159996099
0.04495024435105201 0.08875671301208453 0.5100857041435481
0.04853287562443039 0.08496254883762556 0.4793620427697492
0.06530964064176381 0.05330917713489308 0.4462154067372053
0.04691201718881188 0.07428892711102922 0.4522462781349055
0.01712114030836295 0.07700071933884867 0.4385365492683562
0.02342257866427801 0.09656521132899767 0.488750876936324
0.01534748155529787 0.0971228053108231 0.5182103129700109
-0.005739919235757032 0.09973286427442803 0.4954823556154224
-0.01512529119338978 0.09562432831386318 0.5250442288928542
0.008158643826772892 0.08705465514656359 0.5485275545254523
-0.02428932557511912 0.08207190218316215 0.5517129726001448
0.002930950461556585 0.09398783551048413 0.4659750634762373
-0.02729124414883888 0.0926096742312567 0.4739493525687176
-0.04444910733507173 0.08504554091235153 0.5281341932182321
-0.05188314294112772 0.06735512689475301 0.5526443383427148
-0.004078294353127945 -0.05000378079903986 0.5865042740040677
0.04171453449458794 -0.08690047478761773 0.5266121230567283
0.02651863668448165 -0.05353662870781898 0.419809032335321
0.04701012377821476 -0.08816620981479088 0.4959051606562407
0.01953418199668576 -0.09781443439697926 0.5071240548369169
-0.06962071761305695 0.06655995734930226 0.5268835964242519
-0.07401254945983327 0.04545454418784988 0.5495583185260612
-0.08849456398008829 0.04252181639567804 0.5189896623557743
-0.005401287116041768 -0.04930994135880612 0.4131705362179336
-0.08847095041573741 0.01855393200606126 0.5427626301769499
-0.09845498653806423 0.01405388947060798 0.5104452772360301
-0.09362739456741422 -0.0112470938380715 0.5332778284555251
-0.09881306340177119 -0.01532075706763608 0.5011193319579227
-0.09851563091034303 0.005868680445732985 0.4838683833369702
-0.08959936745716297 -0.03943304851114018 0.5204202849244165
-0.08987171862099708 -0.04251386168744641 0.489246128300514
-0.07599961518749576 -0.06445960232012983 0.5083077168995626
-0.07131231840858973 0.0217933102384466 0.5666303599873416
-0.07203732216195557 -0.0657825697885253 0.4780164214070497
0.00546529145613312 -0.0724147702537848 0.4312524063083581
-0.08095591492173845 -0.04215703017343784 0.4591475258259662
-0.08002994219116112 -0.03284398321846544 0.550164540456627
-0.07709463968121656 0.06367628619783559 0.4986782176901161
-0.0554793140844443 -0.08313114735443534 0.4966446984852718
-0.05614967703602247 -0.0787815395880226 0.5253117124843658
0.01274799183270871 -0.09189031810597664 0.5373317310423132
-0.02396805161852679 -0.06875818054109245 0.4314591719462759
-0.03536796459906904 -0.04070576021244228 0.4157851072217856
-0.01767050252689259 -0.08786515486074024 0.4556438515902787
0.03542719244830741 -0.07193492783349403 0.4402481783305262
-0.01587909685336054 -0.02269691626619636 0.5960869620454662
-0.03507144747809363 -0.04512874490530903 0.5820572358482959
-0.02424515950776384 -0.07025332036013635 0.566907721668124
-0.03142633065686004 0.0619402768068564 0.5719429485810508
-0.0102034432957277 -0.09801965330864079 0.5169716619741478
-0.04510095322615935 -0.01500839197710541 0.5879809762866572
0.02592935156496445 -0.09484073848779583 0.4817543690021419
-0.0180092806840868 0.08218372917278163 0.445949093731033
-0.01165656000604259 0.06058121269883299 0.4212977682859991
-0.04067582215244184 0.06325341828014346 0.4340873110235963
-0.0339815592752929 0.03949349637192365 0.4146447577852385
-0.06070667035003146 0.03937698080264933 0.430977151914164
-0.0516970436604929 0.01370934294308899 0.415504617920067
-0.07557580261244064 0.01224986543085327 0.4356708553110536
-0.0808845441423085 0.03718584239129204 0.454448889755123
-0.05508168520284868 -0.05718997841477715 0.5607890970827138
-0.004313618963304549 0.03418409113157631 0.4061232690974622
-0.06450446393180234 -0.01195275019197464 0.4245261244156691
-0.06010869243205417 -0.06126560226414869 0.4486826435470429
-0.01648006254180358 -0.08868436192408587 0.5431681768057905
-0.02488070049586592 0.00726242297457455 0.5965826483141428
-0.05234906295514574 0.01514506208022309 0.5838463040467758
-0.01557334691873724 0.02759979532161055 0.5948457809496757
0.04861866722271076 -0.08050271079793729 0.466006783740414
0.06824529491752984 0.02318004985636106 0.5693200188277239
0.08527104539816092 -0.02459350607989367 0.5460869642675997
0.06942504008431696 -0.02365182812608084 0.4320238656910728
0.05444073381374828 -0.04762298094273926 0.430947424465498
-0.08217257984048605 -0.01518481599724863 0.4450719699471331
-0.04299289842172243 -0.01481765783479842 0.4109379558869757
0.004137969102067228 -0.07415324507467456 0.5669639713323933
0.03339578262718503 -0.07544276666697641 0.5565076159499758
-0.0901707689166744 0.008420023877543944 0.4575932124433211
-0.09196360280418883 0.03565207786516769 0.4835189471462102
-0.09430632250694919 -0.01715993134595423 0.4715069431015655
0.03589733585250438 0.08696227160922265 0.5338960852497201
0.0139574336591189 0.06751655771277892 0.5724341389143841
0.06844414540757579 -0.07127150871964874 0.4846451634899079
-0.06126268830502297 -0.03400236117211126 0.5713492989199116
-0.07415208516698044 -0.007382935127548647 0.5666855346705062
-0.002233654360181577 -0.09911616402720268 0.4869234248852425
-0.0359421170981488 0.09328607709166145 0.502423229116604
-0.05656887242468173 0.08115422352992784 0.485372810391104
-0.05536260850453407 0.04265131960915762 0.5715251460339033
-0.04829515037892691 -0.08159504219065612 0.4682222162544037
-0.07171468600088186 -0.05951247812074178 0.5362666342486196
-0.02285006617110311 0.01247973797345706 0.4034488186706653
0.08621670518110307 -0.02523627372903191 0.4560703945386698
-0.06443074988197586 0.05743330768166272 0.4495015481584858
-0.04911865392724733 0.07688535649375433 0.4590610235447487
-0.03023375055018966 -0.09442840720752389 0.4869924545006001
0.01638518410763923 0.05459649534079316 0.4178370616502701
-0.05924109849118564 -0.03827628349978386 0.4291098147061117
0.05105182040841468 -0.05470473265800848 0.5663408159265682
-0.01698273768305776 -0.02176810111903395 0.4038868562866662
0.01474611194078627 -0.08866008102510786 0.4561600386034487
-0.03655169582872896 -0.09091389648022911 0.5199658948916963
0.08799735426007514 0.04750019327833736 0.5004441640996637
-0.03392622172562466 0.03680674793125452 0.5865694795303105
-0.007800303991131526 0.04885524015096159 0.5869040894747641
-0.07476607405031106 0.06012511073344428 0.4718041628889216
0.02873011092940937 0.08897617470962434 0.4645342269219147
0.05240998442706919 0.04736668691017512 0.5707784607314105
0.07091828607781062 -0.0465770218902524 0.5529261535691076
-0.0408920253404574 -0.07724217139089518 0.5485951563674299
-0.05932192787295591 0.0800536903093383 0.5085038544961901
0.06531602739689889 0.06835191882198963 0.4674142399438084
0.05634581302590003 -0.06403505507990713 0.447801713865649
0.0719607796021553 -0.04800675556612444 0.4498303117503765
0.01581290438772807 0.01835899103831798 0.4029799015518973
-0.009173796688769201 0.07224065386762855 0.5685356066806927
-0.04023096908004395 -0.07436144255848835 0.446597331644372
0.034587527610748 0.05631547558548199 0.5750484519717544
-0.04551564399760565 -0.05858199629971557 0.4329442332008399
0.06705469069884498 -0.06454818269715436 0.463432246913749
0.01973158608401864 0.02132625848997137 0.5956862331238297
3 1 0 40
162
163
164
165
166
167
168
169
170
171
172
173
174
175
176
177
178
179
180
181
182
183
184
185
186
187
188
189
190
191
192
193
194
195
196
197
198
199
200
201
4.579669976578771e-16 -4.579669976578771e-16 0.4999999999999998
0.03328480359245958 -0.02941804776908697 0.4762299787440309
-0.0248641741364642 -0.03316877951186591 0.471289601551404
-0.01004155528659436 0.02052166027415125 0.5450966369812635
-0.02527545569051651 0.01599052644710532 0.4587552069718499
0.03154329716959786 -0.02900784635863607 0.5266768740488621
0.04779270894523999 0.01672164197749209 0.5001954998954287
-0.02563692577057053 0.04487591481880245 0.4990838094894915
-0.05089463948380415 -0.0001609065630866447 0.4989248568647701
-0.0178010387871545 -0.02880821525780199 0.5374813162273744
0.01595980491019676 0.0424913518821432 0.4733002999853094
0.00344997923645848 -0.05494160884495877 0.5006627497385897
0.01779168076194524 0.003828407711795647 0.4486845727638109
0.01817384030580664 0.04672088312764665 0.5193641468475974
0.03376834703081136 0.0123749095120992 0.5431668100869406
-0.03946382853096192 -0.04727545888498067 0.5062502015228343
-0.04827166720908472 0.02184827866504168 0.5285040935640524
0.00660420584460894 -0.03393627054102949 0.4475897895757524
0.0611937999162516 -0.01894147736813449 0.4999541221578276
0.008388813092919764 -0.006870233469285314 0.5636925583426238
0.04748429712298499 0.02362364070499715 0.4625418811265459
0.03937448234454693 -0.05367280275277003 0.5018926031612305
-0.05322812777768676 0.03060945796924807 0.4783072349595909
-0.02591971083039734 0.0507760759880001 0.5343971568252502
-0.04859620767859979 -0.01096256540049071 0.4564858422892432
0.06133906350674859 -0.005230978237715635 0.5312538139048434
0.05876828623818955 -0.00830084224206375 0.4675172712584928
0.0004726978185194651 0.03426362972170422 0.4423315208813491
0.00777430797888831 -0.05452148553946428 0.5366772038484967
-0.02407068159110155 0.05155336030110275 0.4637219761803593
-0.0523184647090915 -0.01754747433200974 0.5313518167222941
0.001958487947190203 0.0657614525891988 0.4951159384802886
-0.01283340821548024 -0.007274956005975067 0.4355932488819406
0.01557206855474957 0.04087023486324213 0.5522269586553396
0.05009612199051179 0.03758114343293782 0.5270513188158724
-0.05842314924208428 -0.02990960926096042 0.483432444382415
0.04248464361876392 0.05084122598984689 0.4945380280293336
-0.03342636961046387 -0.002839091783289185 0.5571159436385833
0.02258674975735677 -0.06103079503650174 0.4739060574671496
0.03858138846610446 -0.02074668727236236 0.4455234005301034
$EndNodes
$Elements
5 980 1 980
0 1 15 1
1 1 
0 2 15 1
2 2 
1 2 1 10
3 2 3 
4 3 4 
5 4 5 
6 5 6 
7 6 7 
8 7 8 
9 8 9 
10 9 10 
11 10 11 
12 11 1 
2 1 2 318
13 1 19 11 
14 11 161 1 
15 12 106 1 
16 1 161 12 
17 1 86 19 
18 1 106 86 
19 3 28 2 
20 2 155 3 
21 28 140 2 
22 2 140 132 
23 132 155 2 
24 3 13 4 
25 4 16 3 
26 3 155 13 
27 16 28 3 
28 4 21 5 
29 5 112 4 
30 13 21 4 
31 4 112 16 
32 5 17 6 
33 6 133 5 
34 5 21 17 
35 5 133 112 
36 7 14 6 
37 6 31 7 
38 14 133 6 
39 17 31 6 
40 8 22 7 
41 7 32 8 
42 7 22 14 
43 31 32 7 
44 8 18 9 
45 9 111 8 
46 8 32 18 
47 8 111 22 
48 10 15 9 
49 9 110 10 
50 15 111 9 
51 18 110 9 
52 10 20 11 
53 11 29 10 
54 10 29 15 
55 10 110 20 
56 19 29 11 
57 20 161 11 
58 34 145 12 
59 12 161 34 
60 12 108 106 
61 12 145 108 
62 13 35 21 
63 13 137 35 
64 102 137 13 
65 13 155 102 
66 22 23 14 
67 23 24 14 
68 24 133 14 
69 29 139 15 
70 15 149 111 
71 139 149 15 
72 16 58 28 
73 16 113 58 
74 112 113 16 
75 21 43 17 
76 17 36 31 
77 17 43 36 
78 32 33 18 
79 33 37 18 
80 37 110 18 
81 19 30 29 
82 19 56 30 
83 19 86 56 
84 20 158 34 
85 34 161 20 
86 110 148 20 
87 148 158 20 
88 35 43 21 
89 22 25 23 
90 22 111 25 
91 23 123 24 
92 25 26 23 
93 26 123 23 
94 123 160 24 
95 24 154 133 
96 24 160 154 
97 25 27 26 
98 25 149 27 
99 111 149 25 
100 27 57 26 
101 57 59 26 
102 59 123 26 
103 27 117 57 
104 27 139 117 
105 27 149 139 
106 58 64 28 
107 64 140 28 
108 30 139 29 
109 56 116 30 
110 116 117 30 
111 117 139 30 
112 31 143 32 
113 36 143 31 
114 32 143 33 
115 33 38 37 
116 33 40 38 
117 33 143 40 
118 122 145 34 
119 34 158 122 
120 35 44 43 
121 35 45 44 
122 35 137 45 
123 40 143 36 
124 36 152 40 
125 43 152 36 
126 38 39 37 
127 39 148 37 
128 37 148 110 
129 38 121 39 
130 40 41 38 
131 41 121 38 
132 39 121 50 
133 50 122 39 
134 122 158 39 
135 39 158 148 
136 40 42 41 
137 40 152 42 
138 42 46 41 
139 46 47 41 
140 47 121 41 
141 44 147 42 
142 42 152 44 
143 42 147 46 
144 44 152 43 
145 45 147 44 
146 45 93 52 
147 52 147 45 
148 45 94 93 
149 45 137 94 
150 46 48 47 
151 46 52 48 
152 46 147 52 
153 48 49 47 
154 49 50 47 
155 50 121 47 
156 48 127 49 
157 52 53 48 
158 53 127 48 
159 49 51 50 
160 49 54 51 
161 49 127 54 
162 51 156 50 
163 50 156 122 
164 54 55 51 
165 55 89 51 
166 89 156 51 
167 52 93 53 
168 93 135 53 
169 53 128 127 
170 53 135 128 
171 54 61 55 
172 54 151 61 
173 127 151 54 
174 61 62 55 
175 62 129 55 
176 55 129 89 
177 86 87 56 
178 87 88 56 
179 88 116 56 
180 57 60 59 
181 57 81 60 
182 57 117 81 
183 58 75 64 
184 58 85 75 
185 58 113 85 
186 60 92 59 
187 92 109 59 
188 109 123 59 
189 81 90 60 
190 90 126 60 
191 60 126 92 
192 61 63 62 
193 61 78 63 
194 61 151 78 
195 63 65 62 
196 65 73 62 
197 73 129 62 
198 63 66 65 
199 63 119 66 
200 78 119 63 
201 75 82 64 
202 82 83 64 
203 83 140 64 
204 66 67 65 
205 67 125 65 
206 65 125 73 
207 66 68 67 
208 66 69 68 
209 66 119 69 
210 68 70 67 
211 70 77 67 
212 77 125 67 
213 69 120 68 
214 68 71 70 
215 68 120 71 
216 69 119 118 
217 118 120 69 
218 71 72 70 
219 72 131 70 
220 70 131 77 
221 71 74 72 
222 71 76 74 
223 71 120 76 
224 74 79 72 
225 79 80 72 
226 80 131 72 
227 73 125 107 
228 107 129 73 
229 76 104 74 
230 74 130 79 
231 104 130 74 
232 75 84 82 
233 75 141 84 
234 85 141 75 
235 76 138 104 
236 76 120 114 
237 114 138 76 
238 101 124 77 
239 77 131 101 
240 124 125 77 
241 78 146 119 
242 128 146 78 
243 78 151 128 
244 79 142 80 
245 130 136 79 
246 136 142 79 
247 80 150 131 
248 142 150 80 
249 81 105 90 
250 81 116 105 
251 81 117 116 
252 82 159 83 
253 84 157 82 
254 157 159 82 
255 83 138 115 
256 115 140 83 
257 83 159 138 
258 126 136 84 
259 84 141 126 
260 84 136 130 
261 130 157 84 
262 109 141 85 
263 85 153 109 
264 113 153 85 
265 86 91 87 
266 86 106 91 
267 87 101 88 
268 91 124 87 
269 87 124 101 
270 101 150 88 
271 105 116 88 
272 88 150 105 
273 129 144 89 
274 144 145 89 
275 145 156 89 
276 105 142 90 
277 90 136 126 
278 90 142 136 
279 106 107 91 
280 107 125 91 
281 91 125 124 
282 92 141 109 
283 126 141 92 
284 94 95 93 
285 95 135 93 
286 94 96 95 
287 94 102 96 
288 94 137 102 
289 96 97 95 
290 97 134 95 
291 134 135 95 
292 96 98 97 
293 96 132 98 
294 102 132 96 
295 98 99 97 
296 99 100 97 
297 100 134 97 
298 98 103 99 
299 98 115 103 
300 98 132 115 
301 99 118 100 
302 103 114 99 
303 114 118 99 
304 118 119 100 
305 119 146 100 
306 100 146 134 
307 131 150 101 
308 102 155 132 
309 103 138 114 
310 115 138 103 
311 104 157 130 
312 138 159 104 
313 104 159 157 
314 105 150 142 
315 106 144 107 
316 108 144 106 
317 107 144 129 
318 108 145 144 
319 109 160 123 
320 153 160 109 
321 112 154 113 
322 133 154 112 
323 113 154 153 
324 114 120 118 
325 132 140 115 
326 122 156 145 
327 128 151 127 
328 135 146 128 
329 134 146 135 
330 154 160 153 
3 1 4 650
331 78 169 61 178 
332 78 169 178 184 
333 15 167 29 176 
334 163 168 167 180 
335 167 176 15 187 
336 29 176 167 181 
337 78 61 63 178 
338 167 176 162 181 
339 136 173 164 177 
340 166 174 164 194 
341 164 166 162 174 
342 164 174 162 179 
343 78 178 63 184 
344 168 163 182 188 
345 165 162 176 181 
346 174 182 163 188 
347 29 167 30 181 
348 165 162 171 178 
349 142 173 177 190 
350 163 162 174 179 
351 162 171 167 181 
352 136 84 164 173 
353 170 162 178 192 
354 164 173 162 177 
355 162 167 163 168 
356 165 169 162 178 
357 171 178 162 192 
358 136 164 130 177 
359 174 179 164 194 
360 24 163 160 183 
361 123 24 160 183 
362 162 164 163 173 
363 61 178 169 185 
364 163 164 162 179 
365 162 174 172 182 
366 84 164 173 200 
367 142 177 105 190 
368 169 170 162 178 
369 162 170 164 177 
370 84 179 164 200 
371 162 172 168 182 
372 29 139 30 167 
373 162 165 171 181 
374 167 30 181 190 
375 10 15 29 176 
376 162 173 171 177 
377 159 82 83 164 
378 7 31 6 188 
379 154 153 160 163 
380 7 168 31 188 
381 130 136 84 164 
382 151 61 78 169 
383 165 162 169 175 
384 7 180 168 188 
385 167 168 162 176 
386 162 163 167 173 
387 145 12 108 165 
388 63 178 170 184 
389 82 164 84 179 
390 15 139 29 167 
391 150 105 177 190 
392 151 61 169 185 
393 165 178 171 199 
394 162 169 166 170 
395 168 175 162 176 
396 130 84 157 164 
397 162 166 169 172 
398 160 24 154 163 
399 25 167 149 187 
400 165 162 175 176 
401 162 172 169 175 
402 162 166 164 170 
403 150 177 171 190 
404 89 156 145 165 
405 166 172 162 174 
406 56 181 30 190 
407 15 176 10 187 
408 32 168 7 187 
409 167 171 162 173 
410 12 108 165 181 
411 24 180 163 183 
412 156 165 89 185 
413 85 200 153 201 
414 10 176 29 181 
415 160 163 153 200 
416 15 149 139 167 
417 145 165 156 195 
418 82 83 164 179 
419 149 25 27 167 
420 84 82 157 164 
421 166 170 169 184 
422 168 172 162 175 
423 153 200 163 201 
424 165 185 156 195 
425 149 167 15 187 
426 23 24 123 183 
427 164 179 83 194 
428 83 138 159 164 
429 157 82 159 164 
430 97 99 166 184 
431 144 129 89 185 
432 25 167 180 183 
433 56 171 181 190 
434 49 127 169 185 
435 56 171 86 181 
436 150 105 142 177 
437 144 165 129 185 
438 130 177 164 197 
439 27 167 25 183 
440 168 182 31 188 
441 87 86 56 171 
442 68 192 70 197 
443 66 63 170 184 
444 7 168 180 187 
445 99 98 97 166 
446 176 181 161 195 
447 27 167 183 190 
448 136 142 173 177 
449 127 49 169 193 
450 27 183 57 190 
451 30 167 139 190 
452 165 175 169 185 
453 113 85 153 201 
454 178 192 171 199 
455 144 129 165 199 
456 23 180 24 183 
457 165 178 129 185 
458 108 144 165 199 
459 104 130 164 197 
460 25 180 167 187 
461 120 186 170 197 
462 104 157 159 164 
463 74 177 130 197 
464 118 69 120 170 
465 153 163 154 201 
466 49 185 169 193 
467 12 161 181 195 
468 32 31 7 168 
469 129 178 165 199 
470 151 127 54 169 
471 164 83 186 194 
472 160 183 163 200 
473 54 169 127 185 
474 164 170 166 186 
475 66 170 63 178 
476 168 176 167 187 
477 144 89 165 185 
478 104 130 157 164 
479 60 173 57 183 
480 86 171 87 199 
481 151 169 54 185 
482 95 97 96 191 
483 104 74 130 197 
484 49 54 127 185 
485 169 178 165 185 
486 68 170 192 197 
487 75 179 84 200 
488 86 181 171 199 
489 31 143 36 168 
490 145 108 144 165 
491 32 7 8 187 
492 154 163 24 188 
493 12 181 165 195 
494 167 173 163 183 
495 168 187 32 196 
496 163 180 24 188 
497 60 57 173 190 
498 12 106 108 181 
499 18 32 187 196 
500 12 165 145 195 
501 159 138 104 164 
502 97 166 96 191 
503 101 171 177 192 
504 143 168 32 196 
505 120 118 170 186 
506 166 184 99 186 
507 151 54 61 185 
508 169 172 166 191 
509 170 178 169 184 
510 169 175 172 193 
511 143 31 32 168 
512 98 166 99 186 
513 25 180 23 183 
514 57 183 173 190 
515 128 151 78 169 
516 82 84 75 179 
517 47 175 50 193 
518 145 144 89 165 
519 66 119 63 184 
520 20 176 161 195 
521 26 27 25 183 
522 108 106 144 199 
523 117 139 27 167 
524 171 173 167 190 
525 98 96 97 166 
526 36 31 168 182 
527 69 68 120 170 
528 69 170 118 184 
529 139 149 27 167 
530 84 173 126 200 
531 49 47 50 193 
532 136 126 84 173 
533 101 171 150 177 
534 3 2 28 194 
535 179 200 85 201 
536 70 192 177 197 
537 111 25 149 187 
538 97 134 184 191 
539 161 176 11 181 
540 50 185 175 195 
541 142 90 136 173 
542 46 147 42 193 
543 97 100 99 184 
544 117 167 27 190 
545 168 167 180 187 
546 110 176 18 187 
547 57 117 27 190 
548 138 164 83 186 
549 3 174 28 201 
550 124 87 171 199 
551 17 31 182 188 
552 128 53 127 169 
553 53 127 169 193 
554 3 28 174 194 
555 118 184 170 186 
556 172 174 166 189 
557 171 177 173 190 
558 36 168 143 198 
559 18 176 110 196 
560 18 187 176 196 
561 164 177 170 197 
562 174 182 13 189 
563 72 70 177 197 
564 174 179 28 201 
565 139 167 117 190 
566 97 184 166 191 
567 127 151 128 169 
568 156 185 50 195 
569 124 87 101 171 
570 168 180 163 188 
571 132 96 98 166 
572 25 23 26 183 
573 101 177 131 192 
574 120 170 68 197 
575 56 19 30 181 
576 104 164 186 197 
577 35 182 172 189 
578 128 169 78 184 
579 56 88 171 190 
580 60 81 57 190 
581 52 191 172 193 
582 17 6 31 188 
583 52 45 172 191 
584 167 181 171 190 
585 11 161 20 176 
586 62 178 61 185 
587 136 130 79 177 
588 82 64 83 179 
589 123 160 109 183 
590 96 166 132 189 
591 53 169 128 191 
592 88 87 56 171 
593 169 184 128 191 
594 152 44 182 198 
595 96 166 189 191 
596 98 166 186 194 
597 44 172 35 182 
598 47 41 175 193 
599 28 179 174 194 
600 143 168 196 198 
601 147 193 172 198 
602 147 42 193 198 
603 150 171 88 190 
604 12 1 106 181 
605 163 188 154 201 
606 172 175 168 198 
607 92 60 183 200 
608 35 13 182 189 
609 74 79 130 177 
610 55 62 61 185 
611 12 145 34 195 
612 124 171 101 192 
613 113 153 154 201 
614 144 107 129 199 
615 172 182 44 198 
616 58 179 85 201 
617 42 46 193 198 
618 29 30 19 181 
619 171 192 124 199 
620 59 92 60 183 
621 98 132 166 194 
622 33 143 32 196 
623 110 176 148 196 
624 163 200 179 201 
625 104 164 138 186 
626 121 47 41 175 
627 53 169 191 193 
628 45 189 172 191 
629 176 195 148 196 
630 52 93 45 191 
631 10 11 176 181 
632 42 147 44 198 
633 131 150 80 177 
634 166 132 189 194 
635 36 182 168 198 
636 173 183 60 200 
637 147 172 44 198 
638 10 29 11 181 
639 22 180 25 187 
640 150 142 80 177 
641 113 58 85 201 
642 165 176 175 195 
643 68 170 67 192 
644 95 134 97 191 
645 175 176 168 196 
646 68 66 67 170 
647 4 182 174 201 
648 14 24 180 188 
649 121 50 175 195 
650 68 69 66 170 
651 175 193 41 198 
652 52 172 147 193 
653 101 150 131 177 
654 30 139 117 190 
655 14 133 24 188 
656 118 99 184 186 
657 96 189 95 191 
658 64 83 179 194 
659 12 34 161 195 
660 70 71 68 197 
661 110 148 37 196 
662 68 67 70 192 
663 135 128 184 191 
664 3 28 16 201 
665 62 63 61 178 
666 160 109 183 200 
667 18 32 8 187 
668 43 152 44 182 
669 169 185 175 193 
670 105 150 88 190 
671 7 180 8 187 
672 121 175 39 195 
673 4 188 182 201 
674 98 186 115 194 
675 41 193 46 198 
676 135 128 146 184 
677 121 41 38 175 
678 52 45 147 172 
679 35 172 45 189 
680 136 79 142 177 
681 88 101 87 171 
682 15 10 9 187 
683 107 73 129 178 
684 163 180 167 183 
685 133 154 24 188 
686 131 177 70 192 
687 72 71 70 197 
688 111 149 15 187 
689 131 72 70 177 
690 4 21 174 182 
691 45 35 44 172 
692 115 186 83 194 
693 43 44 35 182 
694 107 178 129 199 
695 75 84 141 200 
696 174 188 163 201 
697 36 17 31 182 
698 7 22 8 180 
699 106 181 86 199 
700 111 22 25 187 
701 20 10 11 176 
702 56 116 88 190 
703 66 63 65 178 
704 9 110 18 187 
705 98 103 115 186 
706 160 153 109 200 
707 155 174 189 194 
708 118 99 100 184 
709 47 46 41 193 
710 50 47 121 175 
711 38 175 41 198 
712 45 93 189 191 
713 106 1 86 181 
714 8 180 22 187 
715 49 50 51 185 
716 104 186 76 197 
717 96 94 95 189 
718 128 78 146 184 
719 156 51 50 185 
720 38 196 175 198 
721 88 150 101 171 
722 97 134 100 184 
723 134 135 146 184 
724 53 191 52 193 
725 4 174 3 201 
726 20 148 176 195 
727 166 164 186 194 
728 175 185 165 195 
729 136 90 126 173 
730 143 33 40 196 
731 119 78 63 184 
732 30 116 56 190 
733 147 45 44 172 
734 172 182 174 189 
735 60 57 59 183 
736 16 28 58 201 
737 134 135 184 191 
738 27 26 57 183 
739 92 183 59 200 
740 28 179 58 201 
741 143 196 40 198 
742 13 174 21 182 
743 137 35 45 189 
744 164 170 186 197 
745 23 14 24 180 
746 84 126 141 200 
747 103 98 99 186 
748 89 129 55 185 
749 170 184 166 186 
750 19 56 86 181 
751 127 48 49 193 
752 38 39 121 175 
753 121 39 50 195 
754 102 132 155 189 
755 22 23 25 180 
756 39 195 175 196 
757 152 182 36 198 
758 110 20 148 176 
759 28 64 179 194 
760 165 181 176 195 
761 148 195 39 196 
762 154 188 112 201 
763 172 189 166 191 
764 91 86 87 199 
765 21 13 4 174 
766 18 110 37 196 
767 53 48 127 193 
768 73 178 107 199 
769 95 189 94 191 
770 171 181 165 199 
771 33 32 18 196 
772 13 3 4 174 
773 39 175 38 196 
774 154 133 112 188 
775 135 53 128 191 
776 119 69 118 184 
777 72 177 74 197 
778 115 138 83 186 
779 85 179 75 200 
780 163 179 174 201 
781 34 20 161 195 
782 4 5 182 188 
783 42 41 46 198 
784 177 192 170 197 
785 55 61 54 185 
786 74 72 79 177 
787 172 191 169 193 
788 104 138 76 186 
789 124 91 87 199 
790 28 140 64 194 
791 64 140 83 194 
792 123 26 23 183 
793 166 184 169 191 
794 20 110 10 176 
795 60 126 90 173 
796 65 178 125 192 
797 94 45 93 189 
798 182 188 174 201 
799 173 183 167 190 
800 144 106 107 199 
801 125 178 73 199 
802 50 122 156 195 
803 94 189 93 191 
804 80 142 79 177 
805 176 187 168 196 
806 35 13 21 182 
807 52 53 93 191 
808 120 114 118 186 
809 145 156 122 195 
810 152 43 36 182 
811 42 44 152 198 
812 81 90 105 190 
813 65 73 125 178 
814 114 186 120 197 
815 168 182 172 198 
816 137 13 35 189 
817 120 68 71 197 
818 112 188 5 201 
819 54 49 51 185 
820 20 158 148 195 
821 82 75 64 179 
822 46 52 147 193 
823 75 85 58 179 
824 102 96 132 189 
825 124 101 77 192 
826 125 192 178 199 
827 71 72 74 197 
828 163 183 173 200 
829 129 73 62 178 
830 37 148 39 196 
831 155 174 13 189 
832 48 47 49 193 
833 166 189 174 194 
834 109 59 123 183 
835 115 103 138 186 
836 80 79 72 177 
837 117 57 81 190 
838 14 6 133 188 
839 11 29 19 181 
840 4 3 16 201 
841 4 5 188 201 
842 175 195 176 196 
843 14 22 7 180 
844 1 12 161 181 
845 125 124 192 199 
846 38 40 196 198 
847 104 76 74 197 
848 65 125 67 192 
849 131 80 72 177 
850 117 116 30 190 
851 100 119 118 184 
852 62 65 63 178 
853 4 5 21 182 
854 4 112 5 201 
855 40 36 143 198 
856 98 115 132 194 
857 64 58 28 179 
858 91 106 86 199 
859 172 193 175 198 
860 20 34 158 195 
861 3 13 155 174 
862 175 196 168 198 
863 131 77 101 192 
864 53 52 48 193 
865 122 50 39 195 
866 156 89 51 185 
867 158 39 148 195 
868 23 22 14 180 
869 38 40 33 196 
870 126 92 141 200 
871 109 59 183 200 
872 76 114 120 197 
873 113 154 112 201 
874 19 86 1 181 
875 88 116 105 190 
876 1 161 11 181 
877 8 9 18 187 
878 38 41 40 198 
879 131 70 77 192 
880 8 22 111 187 
881 2 140 28 194 
882 17 182 5 188 
883 9 111 15 187 
884 26 59 57 183 
885 141 85 75 200 
886 36 43 17 182 
887 125 73 107 199 
888 119 146 78 184 
889 47 48 46 193 
890 76 186 114 197 
891 6 17 5 188 
892 134 95 135 191 
893 16 58 113 201 
894 26 123 59 183 
895 85 109 153 200 
896 94 137 45 189 
897 62 73 65 178 
898 118 114 99 186 
899 51 55 54 185 
900 35 21 43 182 
901 146 100 134 184 
902 64 75 58 179 
903 34 145 122 195 
904 13 137 102 189 
905 140 115 83 194 
906 48 52 46 193 
907 124 77 125 192 
908 51 89 55 185 
909 114 76 138 186 
910 17 21 5 182 
911 95 94 93 191 
912 125 91 124 199 
913 1 11 19 181 
914 67 77 70 192 
915 18 37 33 196 
916 109 92 59 200 
917 37 39 38 196 
918 114 103 99 186 
919 105 116 81 190 
920 40 152 36 198 
921 155 13 102 189 
922 67 125 77 192 
923 93 53 135 191 
924 5 112 133 188 
925 41 42 40 198 
926 146 119 100 184 
927 71 76 120 197 
928 102 94 96 189 
929 117 81 116 190 
930 114 138 103 186 
931 9 8 111 187 
932 74 76 71 197 
933 106 91 107 199 
934 17 43 21 182 
935 42 152 40 198 
936 107 91 125 199 
937 140 132 115 194 
938 5 133 6 188 
939 16 112 4 201 
940 158 122 39 195 
941 95 93 135 191 
942 2 132 140 194 
943 16 113 112 201 
944 37 38 33 196 
945 141 109 85 200 
946 158 34 122 195 
947 92 109 141 200 
948 102 137 94 189 
949 182 162 163 168 
950 182 163 162 174 
951 190 142 90 105 
952 190 90 142 173 
953 192 162 177 170 
954 192 177 162 171 
955 188 7 14 6 
956 188 14 7 180 
957 199 108 181 165 
958 199 181 108 106 
959 200 164 163 179 
960 200 163 164 173 
961 194 3 155 174 
962 194 155 3 2 
963 50 193 185 49 
964 185 193 50 175 
965 184 66 69 170 
966 184 69 66 119 
967 190 60 90 173 
968 190 90 60 81 
969 200 60 126 92 
970 200 126 60 173 
971 187 110 10 9 
972 187 10 110 176 
973 194 155 132 189 
974 194 132 155 2 
975 185 62 129 55 
976 185 129 62 178 
977 192 65 170 67 
978 192 170 65 178 
979 66 170 65 67 
980 66 65 170 178 
$EndElements
